<mxfile host="app.diagrams.net" modified="2023-10-22T08:16:57.978Z" agent="Mozilla/5.0 (X11; Ubuntu; Linux x86_64; rv:109.0) Gecko/20100101 Firefox/118.0" etag="0_Y7bHC_pVm5dEuyu0dT" version="22.0.6" type="github">
  <diagram name="Page-1" id="KoSJXy6a0NNms1aJJAFo">
    <mxGraphModel dx="1706" dy="948" grid="1" gridSize="10" guides="1" tooltips="1" connect="1" arrows="1" fold="1" page="1" pageScale="1" pageWidth="850" pageHeight="1100" math="0" shadow="0">
      <root>
        <mxCell id="0" />
        <mxCell id="1" parent="0" />
        <mxCell id="Z80q9H4DkQChlNLaeuM2-7" style="edgeStyle=orthogonalEdgeStyle;rounded=0;orthogonalLoop=1;jettySize=auto;html=1;entryX=0;entryY=0.5;entryDx=0;entryDy=0;" edge="1" parent="1" source="Z80q9H4DkQChlNLaeuM2-2" target="Z80q9H4DkQChlNLaeuM2-3">
          <mxGeometry relative="1" as="geometry">
            <Array as="points">
              <mxPoint x="340" y="145" />
              <mxPoint x="340" y="220" />
            </Array>
          </mxGeometry>
        </mxCell>
        <mxCell id="Z80q9H4DkQChlNLaeuM2-8" style="edgeStyle=orthogonalEdgeStyle;rounded=0;orthogonalLoop=1;jettySize=auto;html=1;entryX=0;entryY=0.5;entryDx=0;entryDy=0;" edge="1" parent="1" source="Z80q9H4DkQChlNLaeuM2-2" target="Z80q9H4DkQChlNLaeuM2-5">
          <mxGeometry relative="1" as="geometry">
            <mxPoint x="340" y="320" as="targetPoint" />
            <Array as="points">
              <mxPoint x="340" y="145" />
              <mxPoint x="340" y="310" />
            </Array>
          </mxGeometry>
        </mxCell>
        <mxCell id="Z80q9H4DkQChlNLaeuM2-9" value="??" style="edgeLabel;html=1;align=center;verticalAlign=middle;resizable=0;points=[];" vertex="1" connectable="0" parent="Z80q9H4DkQChlNLaeuM2-8">
          <mxGeometry x="-0.4943" y="2" relative="1" as="geometry">
            <mxPoint x="-3" as="offset" />
          </mxGeometry>
        </mxCell>
        <mxCell id="Z80q9H4DkQChlNLaeuM2-2" value="Collect samples" style="rounded=0;whiteSpace=wrap;html=1;" vertex="1" parent="1">
          <mxGeometry x="130" y="120" width="180" height="50" as="geometry" />
        </mxCell>
        <mxCell id="Z80q9H4DkQChlNLaeuM2-3" value="Basic Task" style="whiteSpace=wrap;html=1;" vertex="1" parent="1">
          <mxGeometry x="380" y="190" width="120" height="60" as="geometry" />
        </mxCell>
        <mxCell id="Z80q9H4DkQChlNLaeuM2-5" value="Isaac Sim Process" style="whiteSpace=wrap;html=1;" vertex="1" parent="1">
          <mxGeometry x="380" y="280" width="120" height="60" as="geometry" />
        </mxCell>
        <mxCell id="Z80q9H4DkQChlNLaeuM2-6" value="From Where????" style="text;html=1;align=center;verticalAlign=middle;resizable=0;points=[];autosize=1;strokeColor=none;fillColor=none;" vertex="1" parent="1">
          <mxGeometry x="160" y="70" width="120" height="30" as="geometry" />
        </mxCell>
      </root>
    </mxGraphModel>
  </diagram>
</mxfile>
